<?xml version="1.0" standalone="no"?>
<!DOCTYPE svg PUBLIC "-//W3C//DTD SVG 20010904//EN"
 "http://www.w3.org/TR/2001/REC-SVG-20010904/DTD/svg10.dtd">
<svg version="1.0" xmlns="http://www.w3.org/2000/svg"
 width="500.000000pt" height="500.000000pt" viewBox="0 0 500.000000 500.000000"
 preserveAspectRatio="xMidYMid meet">
<g transform="translate(0.000000,500.000000) scale(0.100000,-0.100000)"
fill="#000000" stroke="none">
<path d="M500 2500 l0 -1880 365 0 365 0 0 1880 0 1880 -365 0 -365 0 0 -1880z"/>
<path d="M2140 3440 l0 -940 365 0 365 0 0 940 2 940 -365 0 -365 0 0 -940z"/>
<path d="M3770 2500 l0 -1880 365 0 365 0 0 1880 0 1880 -365 0 -365 0 0
-1880z"/>
</g>
</svg>
